<svg width="24" height="24" viewBox="0 0 24 24" fill="none" xmlns="http://www.w3.org/2000/svg">
<g id="Icons / ic_close">
<path id="Union" fill-rule="evenodd" clip-rule="evenodd" d="M4.92898 2.30766C4.34319 1.72187 3.39344 1.72187 2.80766 2.30766C2.22187 2.89344 2.22187 3.84319 2.80766 4.42898L9.87873 11.5001L2.80766 18.5711C2.22187 19.1569 2.22187 20.1067 2.80766 20.6924C3.39344 21.2782 4.34319 21.2782 4.92898 20.6924L12.0001 13.6214L19.0711 20.6924C19.6569 21.2782 20.6066 21.2782 21.1924 20.6924C21.7782 20.1066 21.7782 19.1569 21.1924 18.5711L14.1214 11.5001L21.1924 4.42899C21.7782 3.8432 21.7782 2.89346 21.1924 2.30767C20.6066 1.72188 19.6569 1.72188 19.0711 2.30767L12.0001 9.37873L4.92898 2.30766Z" fill="#343A40"/>
</g>
</svg>
